<?xml version="1.0" encoding="utf-8"?><!-- Uploaded to: SVG Repo, www.svgrepo.com, Generator: SVG Repo Mixer Tools -->
<svg width="800px" height="800px" viewBox="0 0 24 24" fill="none" xmlns="http://www.w3.org/2000/svg">
<path fill-rule="evenodd" clip-rule="evenodd" d="M14.5 10.5V5.5C14.5 4.11929 13.3807 3 12 3C10.6193 3 9.5 4.11929 9.5 5.5V10.5C9.5 11.8807 10.6193 13 12 13C13.3807 13 14.5 11.8807 14.5 10.5ZM12 1C9.51472 1 7.5 3.01472 7.5 5.5V10.5C7.5 12.9853 9.51472 15 12 15C14.4853 15 16.5 12.9853 16.5 10.5V5.5C16.5 3.01472 14.4853 1 12 1Z" fill="#fff"/>
<path d="M12 17C5.49999 17 5.99999 12 5.99999 12C5.99999 12 6.00001 11 5.00001 11C4.00001 11 3.99999 12 3.99999 12C3.99999 12 3.54013 18.4382 11 18.9657V22C11 22.5523 11.4477 23 12 23C12.5523 23 13 22.5523 13 22V18.9657C20.4599 18.4382 20 12 20 12C20 12 20 11 19 11C18 11 18 12 18 12C18 12 18.5 17 12 17Z" fill="#fff"/>
</svg>